# xmcd
#
# Track frame offsets: 
#        187
#        12887
#        27547
#        45515
#        56245
#        76637
#        97837
#        116725
#        133477
#        147912
#        160152
#
# Disc length: 2324 seconds
#
# Revision: 2
# Processed by: cddbd v1.5.2PL0 Copyright (c) Steve Scherf et al.
# Submitted via: ExactAudioCopy v0.99pb4
#
DISCID=8e09120b
DTITLE=Pat Benatar - True Love
DYEAR=1991
DGENRE=Blues
TTITLE0=Bloodshot Eyes - Pat Benatar
TTITLE1=Payin' The Cost To Be The Boss - Pat Benatar
TTITLE2=So Long - Pat Benatar
TTITLE3=I've Got Papers On You - Pat Benatar
TTITLE4=I Feel Lucky - Pat Benatar
TTITLE5=True Love - Pat Benatar
TTITLE6=The Good Life - Pat Benatar
TTITLE7=Evening - Pat Benatar
TTITLE8=I Get Evil - Pat Benatar
TTITLE9=Don't Happen No More - Pat Benatar
TTITLE10=Please Come Home For Christmas - Pat Benatar
EXTD=
EXTT0=
EXTT1=
EXTT2=
EXTT3=
EXTT4=
EXTT5=
EXTT6=
EXTT7=
EXTT8=
EXTT9=
EXTT10=
PLAYORDER=
